{
.appVersion = "939";
copyright = "Copyright 2016 Google Inc. All Rights Reserved.";
customParameters = (
{
name = description;
value = "Designed by Monotype design team.";
},
{
name = license;
value = "This Font Software is licensed under the SIL Open Font License, Version 1.1. This Font Software is distributed on an \"AS IS\" BASIS, WITHOUT WARRANTIES OR CONDITIONS OF ANY KIND, either express or implied. See the SIL Open Font License for the specific language, permissions and limitations governing your use of this Font Software.";
},
{
name = licenseURL;
value = "http://scripts.sil.org/OFL";
},
{
name = vendorID;
value = GOOG;
},
{
name = trademark;
value = "Noto is a trademark of Google Inc.";
},
{
name = fsType;
value = (
);
},
{
name = panose;
value = (
2,
11,
5,
2,
4,
5,
4,
2,
2,
4
);
},
{
name = unicodeRanges;
value = (
96
);
},
{
name = codePageRanges;
value = (
1252
);
},
{
name = glyphOrder;
value = (
.notdef,
null,
uni000D,
space,
uni1A00,
uni1A01,
uni1A02,
uni1A03,
uni1A04,
uni1A05,
uni1A06,
uni1A07,
uni1A08,
uni1A09,
uni1A0A,
uni1A0B,
uni1A0C,
uni1A0D,
uni1A0E,
uni1A0F,
uni1A10,
uni1A11,
uni1A12,
uni1A13,
uni1A14,
uni1A15,
uni1A16,
uni1A17,
uni1A18,
uni1A19,
uni1A1A,
uni1A1B,
uni1A1E,
uni1A1F,
uni200D,
iya.ligature,
uni1A00_e,
uni1A01_e,
uni1A02_e,
uni1A03_e,
uni1A04_e,
uni1A05_e,
uni1A06_e,
uni1A07_e,
uni1A08_e,
uni1A09_e,
uni1A0A_e,
uni1A0B_e,
uni1A0C_e,
uni1A0D_e,
uni1A0E_e,
uni1A0F_e,
uni1A10_e,
uni1A11_e,
uni1A12_e,
uni1A13_e,
uni1A14_e,
uni1A15_e,
uni1A16_e,
jv_Pangrangkep,
zwsp,
zwnj,
uni25CC
);
}
);
date = "2016-11-10 17:45:23 +0000";
designer = "Monotype Design Team";
designerURL = "http://www.monotype.com/studio";
disablesNiceNames = 1;
familyName = "Noto Sans Buginese";
features = (
{

glyphs = (
{
glyphname = .notdef;
lastChange = "2016-11-10 17:32:57 +0000";
layers = (
{
layerId = "4A6153A2-18B5-4717-AA5B-D3452C23D9FE";
paths = (
{
closed = 1;
nodes = (
"1034 0 LINE",
"1034 1462 LINE",
"193 1462 LINE",
"193 0 LINE"
);
},
{
closed = 1;
nodes = (
"297 1358 LINE",
"930 1358 LINE",
"930 104 LINE",
"297 104 LINE"
);
}
);
width = 1229;
}
);
note = .notdef;
},
{
glyphname = uni1A00;
lastChange = "2016-11-10 17:32:40 +0000";
layers = (
{
layerId = "4A6153A2-18B5-4717-AA5B-D3452C23D9FE";
paths = (
{
closed = 1;
nodes = (
"989 1022 LINE",
"868 1159 LINE",
"6 391 LINE",
"127 256 LINE"
);
},
{
closed = 1;
nodes = (
"1382 766 LINE",
"1260 903 LINE",
"399 137 LINE",
"522 2 LINE"
);
}
);
width = 1386;
}
);
note = uni1A00;
unicode = 1A00;
},
{
glyphname = uni1A01;
lastChange = "2016-11-10 17:32:57 +0000";
layers = (
{
layerId = "4A6153A2-18B5-4717-AA5B-D3452C23D9FE";
paths = (
{
closed = 1;
nodes = (
"641 434 LINE SMOOTH",
"732 519 OFFCURVE",
"779 561 OFFCURVE",
"850 561 CURVE SMOOTH",
"921 561 OFFCURVE",
"971 507 OFFCURVE",
"1059 403 CURVE SMOOTH",
"1257 176 LINE SMOOTH",
"1340 83 OFFCURVE",
"1406 10 OFFCURVE",
"1526 10 CURVE",
"1581 13 OFFCURVE",
"1625 23 OFFCURVE",
"1659 40 CURVE SMOOTH",
"1727 75 OFFCURVE",
"1846 182 OFFCURVE",
"1902 242 CURVE SMOOTH",
"1958 302 OFFCURVE",
"1985 358 OFFCURVE",
"1985 449 CURVE SMOOTH",
"1985 544 OFFCURVE",
"1938 604 OFFCURVE",
"1855 696 CURVE SMOOTH",
"1325 1298 LINE",
"1210 1198 LINE",
"1547 815 OFFCURVE",
"1726 611 OFFCURVE",
"1746 586 CURVE SMOOTH",
"1786 537 OFFCURVE",
"1800 506 OFFCURVE",
"1800 459 CURVE SMOOTH",
"1800 419 OFFCURVE",
"1778 377 OFFCURVE",
"1733 332 CURVE",
"1724 322 LINE",
"1637 234 OFFCURVE",
"1587 197 OFFCURVE",
"1516 197 CURVE SMOOTH",
"1444 197 OFFCURVE",
"1394 248 OFFCURVE",
"1307 352 CURVE SMOOTH",
"1108 580 LINE SMOOTH",
"1004 705 OFFCURVE",
"935 745 OFFCURVE",
"838 745 CURVE SMOOTH",
"723 745 OFFCURVE",
"648 687 OFFCURVE",
"547 596 CURVE SMOOTH",
"39 135 LINE",
"160 0 LINE"
);
},
{
closed = 1;
nodes = (
"915 0 OFFCURVE",
"973 42 OFFCURVE",
"973 139 CURVE SMOOTH",
"973 230 OFFCURVE",
"930 276 OFFCURVE",
"844 276 CURVE SMOOTH",
"761 276 OFFCURVE",
"719 230 OFFCURVE",
"719 139 CURVE SMOOTH",
"719 46 OFFCURVE",
"761 0 OFFCURVE",
"844 0 CURVE SMOOTH"
);
}
);
width = 2142;
}
);
note = uni1A01;
unicode = 1A01;
},
{
glyphname = uni1A02;
lastChange = "2016-11-10 17:32:57 +0000";
layers = (
{
layerId = "4A6153A2-18B5-4717-AA5B-D3452C23D9FE";
paths = (
{
closed = 1;
nodes = (
"739 512 LINE",
"1188 0 LINE",
"1298 96 LINE",
"412 1120 LINE",
"297 1022 LINE",
"621 647 LINE",
"47 135 LINE",
"168 0 LINE"
);
}
);
width = 1239;
}
);
note = uni1A02;
unicode = 1A02;
},
{
glyphname = uni1A03;
lastChange = "2016-11-10 17:32:57 +0000";
layers = (
{
layerId = "4A6153A2-18B5-4717-AA5B-D3452C23D9FE";
paths = (
{
closed = 1;
nodes = (
"1298 111 LINE",
"979 471 LINE",
"906 547 OFFCURVE",
"852 608 OFFCURVE",
"752 616 CURVE",
"768 631 LINE SMOOTH",
"859 715 OFFCURVE",
"906 758 OFFCURVE",
"977 758 CURVE SMOOTH",
"1048 758 OFFCURVE",
"1095 701 OFFCURVE",
"1186 600 CURVE SMOOTH",
"1468 274 LINE",
"1581 385 LINE",
"1235 776 LINE SMOOTH",
"1115 913 OFFCURVE",
"1052 942 OFFCURVE",
"965 942 CURVE SMOOTH",
"850 942 OFFCURVE",
"775 880 OFFCURVE",
"674 791 CURVE SMOOTH",
"39 215 LINE",
"160 80 LINE",
"530 416 LINE SMOOTH",
"589 467 OFFCURVE",
"640 492 OFFCURVE",
"684 492 CURVE SMOOTH",
"755 492 OFFCURVE",
"805 437 OFFCURVE",
"893 336 CURVE SMOOTH",
"1188 0 LINE"
);
}
);
width = 1546;
}
);
note = uni1A03;
unicode = 1A03;
},
{
glyphname = uni1A04;
lastChange = "2016-11-10 17:32:40 +0000";
layers = (
{
layerId = "4A6153A2-18B5-4717-AA5B-D3452C23D9FE";
paths = (
{
closed = 1;
nodes = (
"641 434 LINE SMOOTH",
"732 519 OFFCURVE",
"779 561 OFFCURVE",
"850 561 CURVE SMOOTH",
"921 561 OFFCURVE",
"971 507 OFFCURVE",
"1059 403 CURVE SMOOTH",
"1257 176 LINE SMOOTH",
"1340 83 OFFCURVE",
"1406 10 OFFCURVE",
"1526 10 CURVE",
"1581 13 OFFCURVE",
"1625 23 OFFCURVE",
"1659 40 CURVE SMOOTH",
"1727 75 OFFCURVE",
"1846 182 OFFCURVE",
"1902 242 CURVE SMOOTH",
"1958 302 OFFCURVE",
"1985 358 OFFCURVE",
"1985 449 CURVE SMOOTH",
"1985 544 OFFCURVE",
"1938 604 OFFCURVE",
"1855 696 CURVE SMOOTH",
"1325 1298 LINE",
"1210 1198 LINE",
"1547 815 OFFCURVE",
"1726 611 OFFCURVE",
"1746 586 CURVE SMOOTH",
"1786 537 OFFCURVE",
"1800 506 OFFCURVE",
"1800 459 CURVE SMOOTH",
"1800 419 OFFCURVE",
"1778 377 OFFCURVE",
"1733 332 CURVE",
"1724 322 LINE",
"1637 234 OFFCURVE",
"1587 197 OFFCURVE",
"1516 197 CURVE SMOOTH",
"1444 197 OFFCURVE",
"1394 248 OFFCURVE",
"1307 352 CURVE SMOOTH",
"1108 580 LINE SMOOTH",
"1004 705 OFFCURVE",
"935 745 OFFCURVE",
"838 745 CURVE SMOOTH",
"723 745 OFFCURVE",
"648 687 OFFCURVE",
"547 596 CURVE SMOOTH",
"39 135 LINE",
"160 0 LINE"
);
}
);
width = 2142;
}
);
note = uni1A04;
unicode = 1A04;
},
{
glyphname = uni1A05;
lastChange = "2016-11-10 17:32:40 +0000";
layers = (
{
layerId = "4A6153A2-18B5-4717-AA5B-D3452C23D9FE";
paths = (
{
closed = 1;
nodes = (
"737 510 LINE",
"1188 0 LINE",
"1298 96 LINE",
"731 748 LINE SMOOTH",
"644 848 OFFCURVE",
"602 896 OFFCURVE",
"602 963 CURVE SMOOTH",
"602 1014 OFFCURVE",
"640 1071 OFFCURVE",
"717 1133 CURVE",
"804 1212 OFFCURVE",
"830 1225 OFFCURVE",
"893 1225 CURVE SMOOTH",
"958 1225 OFFCURVE",
"1013 1168 OFFCURVE",
"1090 1077 CURVE SMOOTH",
"1300 836 LINE",
"1417 938 LINE",
"1192 1195 OFFCURVE",
"1067 1333 OFFCURVE",
"1044 1353 CURVE SMOOTH",
"996 1392 OFFCURVE",
"944 1413 OFFCURVE",
"879 1413 CURVE SMOOTH",
"794 1413 OFFCURVE",
"741 1394 OFFCURVE",
"599 1273 CURVE SMOOTH",
"457 1152 OFFCURVE",
"418 1074 OFFCURVE",
"418 975 CURVE SMOOTH",
"418 874 OFFCURVE",
"468 816 OFFCURVE",
"551 723 CURVE SMOOTH",
"616 645 LINE",
"47 135 LINE",
"168 0 LINE"
);
}
);
width = 1386;
}
);
note = uni1A05;
unicode = 1A05;
},
{
glyphname = uni1A06;
lastChange = "2016-11-10 17:32:57 +0000";
layers = (
{
layerId = "4A6153A2-18B5-4717-AA5B-D3452C23D9FE";
paths = (
{
closed = 1;
nodes = (
"1006 0 OFFCURVE",
"1081 59 OFFCURVE",
"1182 150 CURVE SMOOTH",
"1905 807 LINE",
"1782 942 LINE",
"1087 311 LINE SMOOTH",
"998 227 OFFCURVE",
"950 184 OFFCURVE",
"879 184 CURVE SMOOTH",
"807 184 OFFCURVE",
"759 241 OFFCURVE",
"672 342 CURVE SMOOTH",
"145 942 LINE",
"31 838 LINE",
"621 166 LINE SMOOTH",
"741 26 OFFCURVE",
"798 0 OFFCURVE",
"891 0 CURVE SMOOTH"
);
}
);
width = 1935;
}
);
note = uni1A06;
unicode = 1A06;
},
{
glyphname = uni1A07;
lastChange = "2016-11-10 17:32:40 +0000";
layers = (
{
layerId = "4A6153A2-18B5-4717-AA5B-D3452C23D9FE";
paths = (
{
closed = 1;
nodes = (
"739 512 LINE",
"1028 180 LINE SMOOTH",
"1156 36 OFFCURVE",
"1208 14 OFFCURVE",
"1300 14 CURVE SMOOTH",
"1415 14 OFFCURVE",
"1503 85 OFFCURVE",
"1605 182 CURVE SMOOTH",
"1707 278 OFFCURVE",
"1724 329 OFFCURVE",
"1731 430 CURVE",
"1731 518 OFFCURVE",
"1697 577 OFFCURVE",
"1602 686 CURVE SMOOTH",
"1223 1120 LINE",
"1110 1026 LINE",
"1339 756 OFFCURVE",
"1465 607 OFFCURVE",
"1487 579 CURVE SMOOTH",
"1531 523 OFFCURVE",
"1546 483 OFFCURVE",
"1546 442 CURVE",
"1543 371 OFFCURVE",
"1525 351 OFFCURVE",
"1446 283 CURVE SMOOTH",
"1366 214 OFFCURVE",
"1338 201 OFFCURVE",
"1286 201 CURVE SMOOTH",
"1215 201 OFFCURVE",
"1161 257 OFFCURVE",
"1081 346 CURVE SMOOTH",
"412 1120 LINE",
"297 1022 LINE",
"621 647 LINE",
"47 135 LINE",
"168 0 LINE"
);
}
);
width = 1798;
}
);
note = uni1A07;
unicode = 1A07;
},
{
glyphname = uni1A08;
lastChange = "2016-11-10 17:32:57 +0000";
layers = (
{
layerId = "4A6153A2-18B5-4717-AA5B-D3452C23D9FE";
paths = (
{
closed = 1;
nodes = (
"848 631 LINE SMOOTH",
"937 715 OFFCURVE",
"986 758 OFFCURVE",
"1057 758 CURVE SMOOTH",
"1128 758 OFFCURVE",
"1176 701 OFFCURVE",
"1264 600 CURVE SMOOTH",
"1790 0 LINE",
"1905 102 LINE",
"1315 776 LINE SMOOTH",
"1184 921 OFFCURVE",
"1132 942 OFFCURVE",
"1044 942 CURVE SMOOTH",
"929 942 OFFCURVE",
"852 880 OFFCURVE",
"752 791 CURVE SMOOTH",
"31 135 LINE",
"154 0 LINE"
);
}
);
width = 1935;
}
);
note = uni1A08;
unicode = 1A08;
},
{
glyphname = uni1A0B;
lastChange = "2016-11-10 17:32:57 +0000";
layers = (
{
layerId = "4A6153A2-18B5-4717-AA5B-D3452C23D9FE";
paths = (
{
closed = 1;
nodes = (
"641 434 LINE SMOOTH",
"732 519 OFFCURVE",
"779 561 OFFCURVE",
"850 561 CURVE SMOOTH",
"921 561 OFFCURVE",
"971 507 OFFCURVE",
"1059 403 CURVE SMOOTH",
"1257 176 LINE SMOOTH",
"1340 83 OFFCURVE",
"1406 10 OFFCURVE",
"1526 10 CURVE",
"1581 13 OFFCURVE",
"1625 23 OFFCURVE",
"1659 40 CURVE SMOOTH",
"1727 75 OFFCURVE",
"1846 182 OFFCURVE",
"1902 242 CURVE SMOOTH",
"1958 302 OFFCURVE",
"1985 358 OFFCURVE",
"1985 449 CURVE SMOOTH",
"1985 544 OFFCURVE",
"1938 604 OFFCURVE",
"1855 696 CURVE SMOOTH",
"1325 1298 LINE",
"1210 1198 LINE",
"1547 815 OFFCURVE",
"1726 611 OFFCURVE",
"1746 586 CURVE SMOOTH",
"1786 537 OFFCURVE",
"1800 506 OFFCURVE",
"1800 459 CURVE SMOOTH",
"1800 419 OFFCURVE",
"1778 377 OFFCURVE",
"1733 332 CURVE",
"1724 322 LINE",
"1637 234 OFFCURVE",
"1587 197 OFFCURVE",
"1516 197 CURVE SMOOTH",
"1444 197 OFFCURVE",
"1394 251 OFFCURVE",
"1307 352 CURVE SMOOTH",
"1108 580 LINE SMOOTH",
"1004 705 OFFCURVE",
"935 745 OFFCURVE",
"838 745 CURVE SMOOTH",
"723 745 OFFCURVE",
"648 687 OFFCURVE",
"547 596 CURVE SMOOTH",
"39 135 LINE",
"160 0 LINE"
);
},
{
closed = 1;
nodes = (
"1165 72 LINE",
"1008 249 OFFCURVE",
"922 346 OFFCURVE",
"905 361 CURVE SMOOTH",
"888 376 OFFCURVE",
"868 383 OFFCURVE",
"846 383 CURVE SMOOTH",
"799 383 OFFCURVE",
"779 363 OFFCURVE",
"735 326 CURVE",
"530 133 LINE",
"653 0 LINE",
"766 104 OFFCURVE",
"827 158 OFFCURVE",
"835 162 CURVE",
"842 166 OFFCURVE",
"849 168 OFFCURVE",
"856 168 CURVE SMOOTH",
"880 168 OFFCURVE",
"896 148 OFFCURVE",
"932 111 CURVE",
"1051 -29 LINE"
);
}
);
width = 2142;
}
);
note = uni1A0B;
unicode = 1A0B;
},
{
glyphname = uni1A0C;
lastChange = "2016-11-10 17:32:57 +0000";
layers = (
{
layerId = "4A6153A2-18B5-4717-AA5B-D3452C23D9FE";
paths = (
{
closed = 1;
nodes = (
"856 639 LINE SMOOTH",
"947 723 OFFCURVE",
"994 766 OFFCURVE",
"1065 766 CURVE SMOOTH",
"1136 766 OFFCURVE",
"1186 709 OFFCURVE",
"1274 608 CURVE SMOOTH",
"1503 346 LINE",
"1618 449 LINE",
"1323 784 LINE SMOOTH",
"1192 929 OFFCURVE",
"1140 950 OFFCURVE",
"1053 950 CURVE SMOOTH",
"938 950 OFFCURVE",
"863 890 OFFCURVE",
"762 801 CURVE SMOOTH",
"35 156 LINE",
"156 18 LINE"
);
},
{
closed = 1;
nodes = (
"1546 -23 OFFCURVE",
"1595 -9 OFFCURVE",
"1643 18 CURVE SMOOTH",
"1738 73 OFFCURVE",
"1886 217 OFFCURVE",
"1927 272 CURVE SMOOTH",
"1968 327 OFFCURVE",
"1985 369 OFFCURVE",
"1985 449 CURVE SMOOTH",
"1985 544 OFFCURVE",
"1938 604 OFFCURVE",
"1855 696 CURVE SMOOTH",
"1325 1298 LINE",
"1210 1198 LINE",
"1547 815 OFFCURVE",
"1726 611 OFFCURVE",
"1746 586 CURVE SMOOTH",
"1786 537 OFFCURVE",
"1800 506 OFFCURVE",
"1800 459 CURVE SMOOTH",
"1800 379 OFFCURVE",
"1637 231 OFFCURVE",
"1578 193 CURVE SMOOTH",
"1549 174 OFFCURVE",
"1517 164 OFFCURVE",
"1483 164 CURVE SMOOTH",
"1412 164 OFFCURVE",
"1363 219 OFFCURVE",
"1276 319 CURVE SMOOTH",
"1061 567 LINE",
"944 465 LINE",
"1225 143 LINE SMOOTH",
"1345 7 OFFCURVE",
"1408 -23 OFFCURVE",
"1495 -23 CURVE SMOOTH"
);
}
);
width = 2142;
}
);
note = uni1A0C;
unicode = 1A0C;
},
{
glyphname = uni1A0D;
lastChange = "2016-11-10 17:32:57 +0000";
layers = (
{
layerId = "4A6153A2-18B5-4717-AA5B-D3452C23D9FE";
paths = (
{
closed = 1;
nodes = (
"801 596 LINE SMOOTH",
"916 700 OFFCURVE",
"976 748 OFFCURVE",
"1061 748 CURVE SMOOTH",
"1148 748 OFFCURVE",
"1207 688 OFFCURVE",
"1311 565 CURVE",
"1370 500 LINE",
"1253 388 OFFCURVE",
"1172 315 OFFCURVE",
"1127 282 CURVE SMOOTH",
"1082 248 OFFCURVE",
"1036 231 OFFCURVE",
"991 231 CURVE SMOOTH",
"930 231 OFFCURVE",
"868 268 OFFCURVE",
"805 342 CURVE",
"690 240 LINE",
"755 167 OFFCURVE",
"800 122 OFFCURVE",
"825 104 CURVE SMOOTH",
"874 67 OFFCURVE",
"930 47 OFFCURVE",
"1001 47 CURVE SMOOTH",
"1113 47 OFFCURVE",
"1194 88 OFFCURVE",
"1341 221 CURVE SMOOTH",
"1522 389 LINE SMOOTH",
"1559 423 OFFCURVE",
"1577 450 OFFCURVE",
"1577 469 CURVE SMOOTH",
"1577 492 OFFCURVE",
"1558 523 OFFCURVE",
"1520 561 CURVE",
"1369 733 OFFCURVE",
"1279 832 OFFCURVE",
"1249 858 CURVE SMOOTH",
"1189 910 OFFCURVE",
"1128 934 OFFCURVE",
"1049 934 CURVE SMOOTH",
"945 934 OFFCURVE",
"864 901 OFFCURVE",
"707 760 CURVE SMOOTH",
"35 156 LINE",
"156 18 LINE"
);
}
);
width = 1606;
}
);
note = uni1A0D;
unicode = 1A0D;
},
{
glyphname = uni1A0E;
lastChange = "2016-11-10 17:32:57 +0000";
layers = (
{
layerId = "4A6153A2-18B5-4717-AA5B-D3452C23D9FE";
paths = (
{
closed = 1;
nodes = (
"549 633 LINE SMOOTH",
"638 717 OFFCURVE",
"687 760 OFFCURVE",
"758 760 CURVE SMOOTH",
"821 760 OFFCURVE",
"869 716 OFFCURVE",
"942 635 CURVE SMOOTH",
"1110 442 LINE SMOOTH",
"1165 379 OFFCURVE",
"1205 344 OFFCURVE",
"1262 344 CURVE SMOOTH",
"1319 344 OFFCURVE",
"1362 368 OFFCURVE",
"1434 436 CURVE SMOOTH",
"1649 633 LINE SMOOTH",
"1738 717 OFFCURVE",
"1789 760 OFFCURVE",
"1858 760 CURVE SMOOTH",
"1929 760 OFFCURVE",
"1977 701 OFFCURVE",
"2066 602 CURVE SMOOTH",
"2361 276 LINE",
"2470 369 LINE",
"2116 778 LINE SMOOTH",
"1984 926 OFFCURVE",
"1935 944 OFFCURVE",
"1847 944 CURVE SMOOTH",
"1730 944 OFFCURVE",
"1655 885 OFFCURVE",
"1554 793 CURVE SMOOTH",
"1411 659 OFFCURVE",
"1329 584 OFFCURVE",
"1309 568 CURVE SMOOTH",
"1288 551 OFFCURVE",
"1270 543 OFFCURVE",
"1253 543 CURVE SMOOTH",
"1216 543 OFFCURVE",
"1196 573 OFFCURVE",
"1147 633 CURVE",
"1016 778 LINE SMOOTH",
"885 923 OFFCURVE",
"833 944 OFFCURVE",
"745 944 CURVE SMOOTH",
"630 944 OFFCURVE",
"555 885 OFFCURVE",
"455 793 CURVE SMOOTH",
"31 412 LINE",
"150 274 LINE"
);
},
{
closed = 1;
nodes = (
"1423 0 OFFCURVE",
"1523 61 OFFCURVE",
"1624 162 CURVE SMOOTH",
"1761 299 LINE",
"1632 428 LINE",
"1544 338 LINE SMOOTH",
"1455 245 OFFCURVE",
"1372 180 OFFCURVE",
"1257 180 CURVE SMOOTH",
"1185 180 OFFCURVE",
"1111 224 OFFCURVE",
"1036 311 CURVE SMOOTH",
"928 440 LINE",
"811 336 LINE",
"965 160 LINE",
"1052 53 OFFCURVE",
"1156 0 OFFCURVE",
"1276 0 CURVE SMOOTH"
);
}
);
width = 2501;
}
);
note = uni1A0E;
unicode = 1A0E;
},
{
glyphname = uni1A0F;
lastChange = "2016-11-10 17:32:57 +0000";
layers = (
{
layerId = "4A6153A2-18B5-4717-AA5B-D3452C23D9FE";
paths = (
{
closed = 1;
nodes = (
"848 631 LINE SMOOTH",
"937 715 OFFCURVE",
"986 758 OFFCURVE",
"1057 758 CURVE SMOOTH",
"1091 758 OFFCURVE",
"1121 746 OFFCURVE",
"1148 723 CURVE SMOOTH",
"1175 700 OFFCURVE",
"1221 649 OFFCURVE",
"1288 571 CURVE",
"809 135 LINE",
"932 0 LINE",
"1409 434 LINE",
"1790 0 LINE",
"1905 102 LINE",
"1522 537 LINE",
"1626 631 LINE SMOOTH",
"1717 715 OFFCURVE",
"1764 758 OFFCURVE",
"1835 758 CURVE SMOOTH",
"1906 758 OFFCURVE",
"1954 701 OFFCURVE",
"2042 600 CURVE SMOOTH",
"2568 0 LINE",
"2683 102 LINE",
"2093 776 LINE SMOOTH",
"1962 921 OFFCURVE",
"1910 942 OFFCURVE",
"1823 942 CURVE SMOOTH",
"1771 942 OFFCURVE",
"1726 931 OFFCURVE",
"1687 910 CURVE SMOOTH",
"1648 888 OFFCURVE",
"1553 810 OFFCURVE",
"1403 676 CURVE",
"1303 791 OFFCURVE",
"1240 859 OFFCURVE",
"1214 881 CURVE SMOOTH",
"1161 924 OFFCURVE",
"1111 942 OFFCURVE",
"1044 942 CURVE SMOOTH",
"929 942 OFFCURVE",
"852 880 OFFCURVE",
"752 791 CURVE SMOOTH",
"31 135 LINE",
"154 0 LINE"
);
}
);
width = 2714;
}
);
note = uni1A0F;
unicode = 1A0F;
},
{
glyphname = uni1A10;
lastChange = "2016-11-10 17:32:57 +0000";
layers = (
{
layerId = "4A6153A2-18B5-4717-AA5B-D3452C23D9FE";
paths = (
{
closed = 1;
nodes = (
"557 475 LINE SMOOTH",
"600 524 OFFCURVE",
"631 558 OFFCURVE",
"652 577 CURVE SMOOTH",
"672 595 OFFCURVE",
"693 604 OFFCURVE",
"715 604 CURVE SMOOTH",
"737 604 OFFCURVE",
"758 590 OFFCURVE",
"778 563 CURVE SMOOTH",
"1036 221 LINE SMOOTH",
"1092 146 OFFCURVE",
"1134 98 OFFCURVE",
"1162 76 CURVE SMOOTH",
"1190 54 OFFCURVE",
"1223 43 OFFCURVE",
"1260 43 CURVE SMOOTH",
"1344 43 OFFCURVE",
"1404 111 OFFCURVE",
"1497 215 CURVE SMOOTH",
"1733 475 LINE SMOOTH",
"1774 522 OFFCURVE",
"1804 555 OFFCURVE",
"1825 575 CURVE SMOOTH",
"1845 594 OFFCURVE",
"1867 604 OFFCURVE",
"1890 604 CURVE SMOOTH",
"1912 604 OFFCURVE",
"1933 590 OFFCURVE",
"1954 563 CURVE SMOOTH",
"1975 536 OFFCURVE",
"2003 497 OFFCURVE",
"2040 446 CURVE SMOOTH",
"2349 43 LINE",
"2466 131 LINE",
"2095 621 LINE SMOOTH",
"2008 736 OFFCURVE",
"1960 788 OFFCURVE",
"1876 788 CURVE SMOOTH",
"1800 788 OFFCURVE",
"1735 749 OFFCURVE",
"1634 637 CURVE SMOOTH",
"1386 362 LINE SMOOTH",
"1353 327 OFFCURVE",
"1327 298 OFFCURVE",
"1306 276 CURVE SMOOTH",
"1285 253 OFFCURVE",
"1265 242 OFFCURVE",
"1247 242 CURVE SMOOTH",
"1234 242 OFFCURVE",
"1220 248 OFFCURVE",
"1205 259 CURVE SMOOTH",
"1190 270 OFFCURVE",
"1155 312 OFFCURVE",
"1102 383 CURVE SMOOTH",
"915 623 LINE SMOOTH",
"831 735 OFFCURVE",
"783 788 OFFCURVE",
"698 788 CURVE SMOOTH",
"622 788 OFFCURVE",
"560 749 OFFCURVE",
"459 637 CURVE SMOOTH",
"31 166 LINE",
"166 43 LINE"
);
},
{
closed = 1;
nodes = (
"761 41 OFFCURVE",
"819 81 OFFCURVE",
"819 180 CURVE SMOOTH",
"819 271 OFFCURVE",
"776 317 OFFCURVE",
"690 317 CURVE SMOOTH",
"607 317 OFFCURVE",
"565 271 OFFCURVE",
"565 180 CURVE SMOOTH",
"565 87 OFFCURVE",
"607 41 OFFCURVE",
"690 41 CURVE SMOOTH"
);
},
{
closed = 1;
nodes = (
"1935 41 OFFCURVE",
"1993 81 OFFCURVE",
"1993 180 CURVE SMOOTH",
"1993 271 OFFCURVE",
"1950 317 OFFCURVE",
"1864 317 CURVE SMOOTH",
"1781 317 OFFCURVE",
"1739 271 OFFCURVE",
"1739 180 CURVE SMOOTH",
"1739 87 OFFCURVE",
"1781 41 OFFCURVE",
"1864 41 CURVE SMOOTH"
);
}
);
width = 2497;
}
);
note = uni1A10;
unicode = 1A10;
},
{
glyphname = uni1A11;
lastChange = "2016-11-10 17:32:57 +0000";
layers = (
{
layerId = "4A6153A2-18B5-4717-AA5B-D3452C23D9FE";
paths = (
{
closed = 1;
nodes = (
"633 688 LINE SMOOTH",
"722 773 OFFCURVE",
"770 815 OFFCURVE",
"842 815 CURVE SMOOTH",
"913 815 OFFCURVE",
"961 761 OFFCURVE",
"1049 657 CURVE SMOOTH",
"1266 406 LINE",
"1380 508 LINE",
"1100 834 LINE SMOOTH",
"996 959 OFFCURVE",
"928 999 OFFCURVE",
"829 999 CURVE SMOOTH",
"714 999 OFFCURVE",
"637 941 OFFCURVE",
"537 850 CURVE SMOOTH",
"31 389 LINE",
"150 254 LINE"
);
},
{
closed = 1;
nodes = (
"803 285 LINE SMOOTH",
"852 331 OFFCURVE",
"885 354 OFFCURVE",
"901 354 CURVE SMOOTH",
"929 354 OFFCURVE",
"941 338 OFFCURVE",
"977 297 CURVE SMOOTH",
"1208 31 LINE",
"1323 129 LINE",
"1100 384 OFFCURVE",
"979 522 OFFCURVE",
"959 541 CURVE SMOOTH",
"938 560 OFFCURVE",
"916 569 OFFCURVE",
"891 569 CURVE SMOOTH",
"844 569 OFFCURVE",
"824 553 OFFCURVE",
"780 512 CURVE SMOOTH",
"401 164 LINE",
"524 31 LINE"
);
}
);
width = 1411;
}
);
note = uni1A11;
unicode = 1A11;
},
{
glyphname = uni1A12;
lastChange = "2016-11-10 17:32:57 +0000";
layers = (
{
layerId = "4A6153A2-18B5-4717-AA5B-D3452C23D9FE";
paths = (
{
closed = 1;
nodes = (
"1506 166 OFFCURVE",
"1586 220 OFFCURVE",
"1681 315 CURVE SMOOTH",
"1853 485 LINE",
"1724 614 LINE",
"1600 490 OFFCURVE",
"1521 415 OFFCURVE",
"1487 389 CURVE SMOOTH",
"1453 363 OFFCURVE",
"1417 350 OFFCURVE",
"1378 350 CURVE SMOOTH",
"1307 350 OFFCURVE",
"1257 404 OFFCURVE",
"1169 508 CURVE SMOOTH",
"1016 686 LINE SMOOTH",
"901 817 OFFCURVE",
"844 846 OFFCURVE",
"745 846 CURVE SMOOTH",
"630 846 OFFCURVE",
"555 785 OFFCURVE",
"455 694 CURVE SMOOTH",
"31 311 LINE",
"150 176 LINE",
"468 460 OFFCURVE",
"641 612 OFFCURVE",
"668 631 CURVE SMOOTH",
"695 650 OFFCURVE",
"725 659 OFFCURVE",
"758 659 CURVE SMOOTH",
"821 659 OFFCURVE",
"871 616 OFFCURVE",
"942 535 CURVE SMOOTH",
"1120 332 LINE SMOOTH",
"1245 189 OFFCURVE",
"1301 166 OFFCURVE",
"1389 166 CURVE SMOOTH"
);
},
{
closed = 1;
nodes = (
"2527 287 LINE",
"1999 885 LINE SMOOTH",
"1871 1029 OFFCURVE",
"1818 1049 OFFCURVE",
"1731 1049 CURVE SMOOTH",
"1616 1049 OFFCURVE",
"1538 990 OFFCURVE",
"1438 899 CURVE SMOOTH",
"1253 729 LINE",
"1374 594 LINE",
"1534 737 LINE SMOOTH",
"1625 822 OFFCURVE",
"1673 864 OFFCURVE",
"1741 864 CURVE SMOOTH",
"1812 864 OFFCURVE",
"1862 810 OFFCURVE",
"1950 707 CURVE SMOOTH",
"2415 176 LINE"
);
}
);
width = 2556;
}
);
note = uni1A12;
unicode = 1A12;
},
{
glyphname = uni1A13;
lastChange = "2016-11-10 17:32:57 +0000";
layers = (
{
layerId = "4A6153A2-18B5-4717-AA5B-D3452C23D9FE";
paths = (
{
closed = 1;
nodes = (
"557 475 LINE SMOOTH",
"600 524 OFFCURVE",
"631 558 OFFCURVE",
"652 577 CURVE SMOOTH",
"672 595 OFFCURVE",
"693 604 OFFCURVE",
"715 604 CURVE SMOOTH",
"737 604 OFFCURVE",
"758 590 OFFCURVE",
"778 563 CURVE SMOOTH",
"1036 221 LINE SMOOTH",
"1092 146 OFFCURVE",
"1134 98 OFFCURVE",
"1162 76 CURVE SMOOTH",
"1190 54 OFFCURVE",
"1223 43 OFFCURVE",
"1260 43 CURVE SMOOTH",
"1344 43 OFFCURVE",
"1404 111 OFFCURVE",
"1497 215 CURVE SMOOTH",
"1733 475 LINE SMOOTH",
"1774 522 OFFCURVE",
"1804 555 OFFCURVE",
"1825 575 CURVE SMOOTH",
"1845 594 OFFCURVE",
"1867 604 OFFCURVE",
"1890 604 CURVE SMOOTH",
"1912 604 OFFCURVE",
"1933 590 OFFCURVE",
"1954 563 CURVE SMOOTH",
"1975 536 OFFCURVE",
"2003 497 OFFCURVE",
"2040 446 CURVE SMOOTH",
"2349 43 LINE",
"2466 131 LINE",
"2095 621 LINE SMOOTH",
"2008 736 OFFCURVE",
"1960 788 OFFCURVE",
"1876 788 CURVE SMOOTH",
"1800 788 OFFCURVE",
"1735 749 OFFCURVE",
"1634 637 CURVE SMOOTH",
"1386 362 LINE SMOOTH",
"1353 327 OFFCURVE",
"1327 298 OFFCURVE",
"1306 276 CURVE SMOOTH",
"1285 253 OFFCURVE",
"1265 242 OFFCURVE",
"1247 242 CURVE SMOOTH",
"1234 242 OFFCURVE",
"1220 248 OFFCURVE",
"1205 259 CURVE SMOOTH",
"1190 270 OFFCURVE",
"1155 312 OFFCURVE",
"1102 383 CURVE SMOOTH",
"915 623 LINE SMOOTH",
"831 735 OFFCURVE",
"783 788 OFFCURVE",
"698 788 CURVE SMOOTH",
"622 788 OFFCURVE",
"560 749 OFFCURVE",
"459 637 CURVE SMOOTH",
"31 166 LINE",
"166 43 LINE"
);
}
);
width = 2497;
}
);
note = uni1A13;
unicode = 1A13;
},
{
glyphname = uni1A14;
lastChange = "2016-11-10 17:32:57 +0000";
layers = (
{
layerId = "4A6153A2-18B5-4717-AA5B-D3452C23D9FE";
paths = (
{
closed = 1;
nodes = (
"671 47 OFFCURVE",
"751 88 OFFCURVE",
"899 221 CURVE SMOOTH",
"1096 403 LINE SMOOTH",
"1133 438 OFFCURVE",
"1151 464 OFFCURVE",
"1151 483 CURVE SMOOTH",
"1151 505 OFFCURVE",
"1133 534 OFFCURVE",
"1096 571 CURVE",
"936 758 LINE SMOOTH",
"785 925 OFFCURVE",
"723 948 OFFCURVE",
"623 948 CURVE SMOOTH",
"538 948 OFFCURVE",
"446 916 OFFCURVE",
"351 833 CURVE SMOOTH",
"303 791 OFFCURVE",
"214 711 OFFCURVE",
"84 592 CURVE SMOOTH",
"49 559 OFFCURVE",
"31 533 OFFCURVE",
"31 512 CURVE SMOOTH",
"31 500 OFFCURVE",
"38 483 OFFCURVE",
"53 462 CURVE",
"81 419 OFFCURVE",
"334 140 OFFCURVE",
"383 104 CURVE SMOOTH",
"432 67 OFFCURVE",
"488 47 OFFCURVE",
"559 47 CURVE SMOOTH"
);
},
{
closed = 1;
nodes = (
"500 231 OFFCURVE",
"455 253 OFFCURVE",
"405 297 CURVE SMOOTH",
"380 319 OFFCURVE",
"323 381 OFFCURVE",
"236 483 CURVE",
"397 631 OFFCURVE",
"494 715 OFFCURVE",
"528 735 CURVE SMOOTH",
"561 754 OFFCURVE",
"597 764 OFFCURVE",
"635 764 CURVE SMOOTH",
"676 764 OFFCURVE",
"721 743 OFFCURVE",
"768 702 CURVE SMOOTH",
"815 660 OFFCURVE",
"873 597 OFFCURVE",
"944 512 CURVE",
"798 378 OFFCURVE",
"712 302 OFFCURVE",
"687 284 CURVE SMOOTH",
"636 247 OFFCURVE",
"596 231 OFFCURVE",
"549 231 CURVE SMOOTH"
);
}
);
width = 1180;
}
);
note = uni1A14;
unicode = 1A14;
},
{
glyphname = uni1A15;
lastChange = "2016-11-10 17:32:57 +0000";
layers = (
{
layerId = "4A6153A2-18B5-4717-AA5B-D3452C23D9FE";
paths = (
{
closed = 1;
nodes = (
"604 535 LINE SMOOTH",
"644 581 OFFCURVE",
"678 604 OFFCURVE",
"707 604 CURVE SMOOTH",
"728 604 OFFCURVE",
"749 590 OFFCURVE",
"770 563 CURVE SMOOTH",
"1030 221 LINE SMOOTH",
"1086 146 OFFCURVE",
"1128 98 OFFCURVE",
"1156 76 CURVE SMOOTH",
"1184 54 OFFCURVE",
"1216 43 OFFCURVE",
"1253 43 CURVE SMOOTH",
"1338 43 OFFCURVE",
"1395 111 OFFCURVE",
"1491 215 CURVE SMOOTH",
"1726 475 LINE SMOOTH",
"1767 522 OFFCURVE",
"1798 555 OFFCURVE",
"1819 575 CURVE SMOOTH",
"1839 594 OFFCURVE",
"1861 604 OFFCURVE",
"1884 604 CURVE SMOOTH",
"1906 604 OFFCURVE",
"1927 590 OFFCURVE",
"1948 563 CURVE SMOOTH",
"1968 536 OFFCURVE",
"1997 497 OFFCURVE",
"2034 446 CURVE SMOOTH",
"2341 43 LINE",
"2460 131 LINE",
"2089 621 LINE SMOOTH",
"2001 736 OFFCURVE",
"1952 788 OFFCURVE",
"1868 788 CURVE SMOOTH",
"1793 788 OFFCURVE",
"1729 749 OFFCURVE",
"1628 637 CURVE SMOOTH",
"1380 362 LINE SMOOTH",
"1347 327 OFFCURVE",
"1321 298 OFFCURVE",
"1300 276 CURVE SMOOTH",
"1279 253 OFFCURVE",
"1259 242 OFFCURVE",
"1241 242 CURVE SMOOTH",
"1225 242 OFFCURVE",
"1209 249 OFFCURVE",
"1194 262 CURVE SMOOTH",
"1179 275 OFFCURVE",
"1145 315 OFFCURVE",
"1094 383 CURVE SMOOTH",
"909 623 LINE SMOOTH",
"825 735 OFFCURVE",
"777 788 OFFCURVE",
"692 788 CURVE SMOOTH",
"627 788 OFFCURVE",
"546 736 OFFCURVE",
"450 633 CURVE SMOOTH",
"353 529 OFFCURVE",
"212 373 OFFCURVE",
"25 166 CURVE",
"160 43 LINE"
);
},
{
closed = 1;
nodes = (
"1931 41 OFFCURVE",
"1989 81 OFFCURVE",
"1989 180 CURVE SMOOTH",
"1989 271 OFFCURVE",
"1946 317 OFFCURVE",
"1860 317 CURVE SMOOTH",
"1777 317 OFFCURVE",
"1735 271 OFFCURVE",
"1735 180 CURVE SMOOTH",
"1735 87 OFFCURVE",
"1777 41 OFFCURVE",
"1860 41 CURVE SMOOTH"
);
}
);
width = 2490;
}
);
note = uni1A15;
unicode = 1A15;
},
{
glyphname = uni1A16;
lastChange = "2016-11-10 17:32:57 +0000";
layers = (
{
layerId = "4A6153A2-18B5-4717-AA5B-D3452C23D9FE";
paths = (
{
closed = 1;
nodes = (
"626 47 OFFCURVE",
"683 69 OFFCURVE",
"751 114 CURVE SMOOTH",
"784 136 OFFCURVE",
"888 224 OFFCURVE",
"1061 379 CURVE",
"1186 240 LINE SMOOTH",
"1251 167 OFFCURVE",
"1296 122 OFFCURVE",
"1321 104 CURVE SMOOTH",
"1370 67 OFFCURVE",
"1426 47 OFFCURVE",
"1497 47 CURVE SMOOTH",
"1609 47 OFFCURVE",
"1689 88 OFFCURVE",
"1837 221 CURVE SMOOTH",
"2034 403 LINE SMOOTH",
"2071 438 OFFCURVE",
"2089 464 OFFCURVE",
"2089 483 CURVE SMOOTH",
"2089 505 OFFCURVE",
"2071 534 OFFCURVE",
"2034 571 CURVE",
"1882 756 LINE",
"1731 923 OFFCURVE",
"1670 946 OFFCURVE",
"1569 946 CURVE SMOOTH",
"1465 946 OFFCURVE",
"1390 917 OFFCURVE",
"1229 772 CURVE SMOOTH",
"1057 618 LINE",
"940 755 OFFCURVE",
"865 837 OFFCURVE",
"834 864 CURVE SMOOTH",
"770 919 OFFCURVE",
"704 946 OFFCURVE",
"623 946 CURVE SMOOTH",
"568 946 OFFCURVE",
"451 921 OFFCURVE",
"351 835 CURVE SMOOTH",
"301 792 OFFCURVE",
"212 711 OFFCURVE",
"84 592 CURVE SMOOTH",
"49 559 OFFCURVE",
"31 533 OFFCURVE",
"31 512 CURVE SMOOTH",
"31 501 OFFCURVE",
"36 487 OFFCURVE",
"46 470 CURVE SMOOTH",
"66 435 OFFCURVE",
"321 151 OFFCURVE",
"373 111 CURVE SMOOTH",
"425 70 OFFCURVE",
"480 47 OFFCURVE",
"553 47 CURVE SMOOTH"
);
},
{
closed = 1;
nodes = (
"498 231 OFFCURVE",
"457 247 OFFCURVE",
"420 279 CURVE SMOOTH",
"383 310 OFFCURVE",
"322 378 OFFCURVE",
"236 481 CURVE",
"375 610 LINE SMOOTH",
"487 719 OFFCURVE",
"550 762 OFFCURVE",
"635 762 CURVE SMOOTH",
"677 762 OFFCURVE",
"719 745 OFFCURVE",
"760 710 CURVE SMOOTH",
"801 675 OFFCURVE",
"861 610 OFFCURVE",
"940 516 CURVE",
"832 419 OFFCURVE",
"759 355 OFFCURVE",
"722 322 CURVE SMOOTH",
"647 256 OFFCURVE",
"598 231 OFFCURVE",
"543 231 CURVE SMOOTH"
);
},
{
closed = 1;
nodes = (
"1450 231 OFFCURVE",
"1415 243 OFFCURVE",
"1380 266 CURVE SMOOTH",
"1345 289 OFFCURVE",
"1277 361 OFFCURVE",
"1176 481 CURVE",
"1319 608 LINE SMOOTH",
"1434 715 OFFCURVE",
"1497 762 OFFCURVE",
"1581 762 CURVE SMOOTH",
"1666 762 OFFCURVE",
"1729 698 OFFCURVE",
"1833 578 CURVE",
"1882 512 LINE",
"1736 378 OFFCURVE",
"1650 302 OFFCURVE",
"1625 284 CURVE SMOOTH",
"1574 247 OFFCURVE",
"1534 231 OFFCURVE",
"1487 231 CURVE SMOOTH"
);
}
);
width = 2118;
}
);
note = uni1A16;
unicode = 1A16;
},
{
glyphname = uni1A17;
lastChange = "2016-11-10 17:32:57 +0000";
layers = (
{
layerId = "4A6153A2-18B5-4717-AA5B-D3452C23D9FE";
paths = (
{
closed = 1;
nodes = (
"-467 1296 OFFCURVE",
"-410 1337 OFFCURVE",
"-410 1436 CURVE SMOOTH",
"-410 1527 OFFCURVE",
"-453 1573 OFFCURVE",
"-539 1573 CURVE SMOOTH",
"-622 1573 OFFCURVE",
"-664 1527 OFFCURVE",
"-664 1436 CURVE SMOOTH",
"-664 1343 OFFCURVE",
"-622 1296 OFFCURVE",
"-539 1296 CURVE SMOOTH"
);
}
);
width = 0;
}
);
note = uni1A17;
unicode = 1A17;
},
{
glyphname = uni1A18;
lastChange = "2016-11-10 17:32:57 +0000";
layers = (
{
layerId = "4A6153A2-18B5-4717-AA5B-D3452C23D9FE";
paths = (
{
closed = 1;
nodes = (
"-476 -381 OFFCURVE",
"-418 -339 OFFCURVE",
"-418 -242 CURVE SMOOTH",
"-418 -150 OFFCURVE",
"-461 -104 OFFCURVE",
"-547 -104 CURVE SMOOTH",
"-630 -104 OFFCURVE",
"-672 -150 OFFCURVE",
"-672 -242 CURVE SMOOTH",
"-672 -335 OFFCURVE",
"-630 -381 OFFCURVE",
"-547 -381 CURVE SMOOTH"
);
}
);
width = 0;
}
);
note = uni1A18;
unicode = 1A18;
},
{
glyphname = uni1A19;
lastChange = "2016-11-10 17:32:57 +0000";
layers = (
{
layerId = "4A6153A2-18B5-4717-AA5B-D3452C23D9FE";
paths = (
{
closed = 1;
nodes = (
"780 12 LINE",
"389 434 LINE SMOOTH",
"337 489 OFFCURVE",
"307 515 OFFCURVE",
"307 551 CURVE SMOOTH",
"307 569 OFFCURVE",
"318 588 OFFCURVE",
"340 608 CURVE SMOOTH",
"362 627 OFFCURVE",
"392 654 OFFCURVE",
"430 688 CURVE SMOOTH",
"659 893 LINE",
"537 1026 LINE",
"217 741 LINE SMOOTH",
"141 676 OFFCURVE",
"111 635 OFFCURVE",
"111 578 CURVE SMOOTH",
"111 523 OFFCURVE",
"140 483 OFFCURVE",
"197 420 CURVE SMOOTH",
"659 -86 LINE"
);
}
);
width = 731;
}
);
note = uni1A19;
unicode = 1A19;
},
{
glyphname = uni1A1A;
lastChange = "2016-11-10 17:32:57 +0000";
layers = (
{
layerId = "4A6153A2-18B5-4717-AA5B-D3452C23D9FE";
paths = (
{
closed = 1;
nodes = (
"1378 106 LINE",
"684 864 LINE",
"619 941 OFFCURVE",
"577 965 OFFCURVE",
"522 965 CURVE SMOOTH",
"473 965 OFFCURVE",
"435 940 OFFCURVE",
"358 868 CURVE SMOOTH",
"51 580 LINE",
"174 444 LINE",
"360 623 OFFCURVE",
"464 721 OFFCURVE",
"487 738 CURVE SMOOTH",
"509 754 OFFCURVE",
"529 763 OFFCURVE",
"547 764 CURVE",
"564 764 OFFCURVE",
"599 733 OFFCURVE",
"651 672 CURVE",
"1264 4 LINE"
);
}
);
width = 1106;
}
);
note = uni1A1A;
unicode = 1A1A;
},
{
glyphname = uni1A1B;
lastChange = "2016-11-10 17:32:57 +0000";
layers = (
{
layerId = "4A6153A2-18B5-4717-AA5B-D3452C23D9FE";
paths = (
{
closed = 1;
nodes = (
"-1450 1248 OFFCURVE",
"-1361 1321 OFFCURVE",
"-1326 1349 CURVE SMOOTH",
"-1257 1405 OFFCURVE",
"-1251 1429 OFFCURVE",
"-1251 1466 CURVE SMOOTH",
"-1251 1493 OFFCURVE",
"-1274 1533 OFFCURVE",
"-1321 1585 CURVE SMOOTH",
"-1694 2013 LINE",
"-1806 1913 LINE",
"-1584 1658 OFFCURVE",
"-1471 1527 OFFCURVE",
"-1467 1521 CURVE",
"-1464 1514 OFFCURVE",
"-1462 1508 OFFCURVE",
"-1462 1501 CURVE",
"-1464 1493 LINE",
"-1465 1475 OFFCURVE",
"-1493 1446 OFFCURVE",
"-1548 1405 CURVE",
"-1710 1268 LINE",
"-1593 1130 LINE"
);
}
);
width = 0;
}
);
note = uni1A1B;
unicode = 1A1B;
},
{
glyphname = uni1A1E;
lastChange = "2016-11-10 17:32:57 +0000";
layers = (
{
layerId = "4A6153A2-18B5-4717-AA5B-D3452C23D9FE";
paths = (
{
closed = 1;
nodes = (
"585 397 OFFCURVE",
"643 438 OFFCURVE",
"643 537 CURVE SMOOTH",
"643 628 OFFCURVE",
"600 674 OFFCURVE",
"514 674 CURVE SMOOTH",
"431 674 OFFCURVE",
"389 628 OFFCURVE",
"389 537 CURVE SMOOTH",
"389 444 OFFCURVE",
"431 397 OFFCURVE",
"514 397 CURVE SMOOTH"
);
},
{
closed = 1;
nodes = (
"913 2 OFFCURVE",
"971 44 OFFCURVE",
"971 141 CURVE SMOOTH",
"971 233 OFFCURVE",
"928 279 OFFCURVE",
"842 279 CURVE SMOOTH",
"759 279 OFFCURVE",
"717 233 OFFCURVE",
"717 141 CURVE SMOOTH",
"717 48 OFFCURVE",
"759 2 OFFCURVE",
"842 2 CURVE SMOOTH"
);
},
{
closed = 1;
nodes = (
"262 786 OFFCURVE",
"319 827 OFFCURVE",
"319 926 CURVE SMOOTH",
"319 1017 OFFCURVE",
"276 1063 OFFCURVE",
"190 1063 CURVE SMOOTH",
"107 1063 OFFCURVE",
"66 1017 OFFCURVE",
"66 926 CURVE SMOOTH",
"66 833 OFFCURVE",
"107 786 OFFCURVE",
"190 786 CURVE SMOOTH"
);
}
);
width = 1032;
}
);
note = uni1A1E;
unicode = 1A1E;
},
{
glyphname = uni1A1F;
lastChange = "2016-11-10 17:32:57 +0000";
layers = (
{
layerId = "4A6153A2-18B5-4717-AA5B-D3452C23D9FE";
paths = (
{
closed = 1;
nodes = (
"377 739 LINE SMOOTH",
"466 824 OFFCURVE",
"514 866 OFFCURVE",
"586 866 CURVE SMOOTH",
"657 866 OFFCURVE",
"705 812 OFFCURVE",
"793 709 CURVE SMOOTH",
"889 600 LINE",
"1001 700 LINE",
"844 887 LINE",
"776 958 OFFCURVE",
"727 1019 OFFCURVE",
"647 1040 CURVE",
"647 1245 LINE",
"498 1245 LINE",
"498 1040 LINE",
"439 1027 OFFCURVE",
"368 980 OFFCURVE",
"283 901 CURVE SMOOTH",
"100 735 LINE",
"221 600 LINE"
);
},
{
closed = 1;
nodes = (
"598 -88 LINE",
"598 90 LINE",
"657 107 OFFCURVE",
"730 154 OFFCURVE",
"819 233 CURVE SMOOTH",
"999 399 LINE",
"879 535 LINE",
"725 395 LINE SMOOTH",
"634 311 OFFCURVE",
"587 268 OFFCURVE",
"516 268 CURVE SMOOTH",
"487 268 OFFCURVE",
"460 277 OFFCURVE",
"435 295 CURVE SMOOTH",
"410 313 OFFCURVE",
"336 393 OFFCURVE",
"213 535 CURVE",
"98 434 LINE",
"249 261 OFFCURVE",
"337 164 OFFCURVE",
"362 143 CURVE SMOOTH",
"387 122 OFFCURVE",
"415 105 OFFCURVE",
"446 94 CURVE",
"446 -88 LINE"
);
}
);
width = 1102;
}
);
note = uni1A1F;
unicode = 1A1F;
},
{
glyphname = jv_Pangrangkep;
lastChange = "2016-11-10 17:32:57 +0000";
layers = (
{
layerId = "4A6153A2-18B5-4717-AA5B-D3452C23D9FE";
paths = (
{
closed = 1;
nodes = (
"511 -20 OFFCURVE",
"531 -16 OFFCURVE",
"547 -7 CURVE",
"571 79 OFFCURVE",
"583 170 OFFCURVE",
"583 265 CURVE SMOOTH",
"583 489 OFFCURVE",
"513 702 OFFCURVE",
"397 871 CURVE",
"450 858 OFFCURVE",
"499 852 OFFCURVE",
"544 852 CURVE SMOOTH",
"716 852 OFFCURVE",
"815 947 OFFCURVE",
"815 1118 CURVE",
"800 1126 OFFCURVE",
"780 1130 OFFCURVE",
"755 1130 CURVE SMOOTH",
"730 1130 OFFCURVE",
"710 1126 OFFCURVE",
"694 1118 CURVE",
"694 1054 OFFCURVE",
"647 1022 OFFCURVE",
"552 1022 CURVE SMOOTH",
"461 1022 OFFCURVE",
"323 1054 OFFCURVE",
"138 1118 CURVE",
"130 1090 OFFCURVE",
"126 1065 OFFCURVE",
"126 1043 CURVE SMOOTH",
"126 1020 OFFCURVE",
"130 995 OFFCURVE",
"138 967 CURVE",
"335 806 OFFCURVE",
"466 523 OFFCURVE",
"466 250 CURVE SMOOTH",
"466 163 OFFCURVE",
"453 77 OFFCURVE",
"426 -7 CURVE",
"443 -16 OFFCURVE",
"464 -20 OFFCURVE",
"487 -20 CURVE SMOOTH"
);
}
);
width = 940;
}
);
note = jv_Pangrangkep;
unicode = A9CF;
},
{
glyphname = zwnj;
lastChange = "2016-11-10 17:32:57 +0000";
layers = (
{
layerId = "4A6153A2-18B5-4717-AA5B-D3452C23D9FE";
paths = (
{
closed = 1;
nodes = (
"36 183 LINE",
"36 1667 LINE",
"-36 1667 LINE",
"-36 183 LINE"
);
}
);
width = 0;
}
);
note = zwnj;
unicode = 200C;
},
{
glyphname = uni25CC;
lastChange = "2016-11-10 17:32:57 +0000";
layers = (
{
layerId = "4A6153A2-18B5-4717-AA5B-D3452C23D9FE";
paths = (
{
closed = 1;
nodes = (
"324 864 OFFCURVE",
"342 882 OFFCURVE",
"342 918 CURVE SMOOTH",
"342 955 OFFCURVE",
"324 973 OFFCURVE",
"287 973 CURVE SMOOTH",
"251 973 OFFCURVE",
"233 954 OFFCURVE",
"233 915 CURVE SMOOTH",
"233 881 OFFCURVE",
"251 864 OFFCURVE",
"287 864 CURVE SMOOTH"
);
},
{
closed = 1;
nodes = (
"324 219 OFFCURVE",
"342 237 OFFCURVE",
"342 272 CURVE SMOOTH",
"342 309 OFFCURVE",
"324 328 OFFCURVE",
"287 328 CURVE SMOOTH",
"251 328 OFFCURVE",
"233 309 OFFCURVE",
"233 272 CURVE SMOOTH",
"233 237 OFFCURVE",
"251 219 OFFCURVE",
"287 219 CURVE SMOOTH"
);
},
{
closed = 1;
nodes = (
"224 369 OFFCURVE",
"242 387 OFFCURVE",
"242 422 CURVE SMOOTH",
"242 459 OFFCURVE",
"224 477 OFFCURVE",
"188 477 CURVE SMOOTH",
"151 477 OFFCURVE",
"133 459 OFFCURVE",
"133 422 CURVE SMOOTH",
"133 387 OFFCURVE",
"151 369 OFFCURVE",
"188 369 CURVE SMOOTH"
);
},
{
closed = 1;
nodes = (
"471 123 OFFCURVE",
"489 141 OFFCURVE",
"489 178 CURVE SMOOTH",
"489 212 OFFCURVE",
"471 229 OFFCURVE",
"434 229 CURVE SMOOTH",
"399 229 OFFCURVE",
"381 211 OFFCURVE",
"381 174 CURVE SMOOTH",
"381 140 OFFCURVE",
"399 123 OFFCURVE",
"434 123 CURVE SMOOTH"
);
},
{
closed = 1;
nodes = (
"189 543 OFFCURVE",
"207 561 OFFCURVE",
"207 596 CURVE SMOOTH",
"207 631 OFFCURVE",
"189 649 OFFCURVE",
"154 649 CURVE SMOOTH",
"117 649 OFFCURVE",
"98 631 OFFCURVE",
"98 596 CURVE SMOOTH",
"98 561 OFFCURVE",
"117 543 OFFCURVE",
"154 543 CURVE SMOOTH"
);
},
{
closed = 1;
nodes = (
"644 86 OFFCURVE",
"662 104 OFFCURVE",
"662 141 CURVE SMOOTH",
"662 177 OFFCURVE",
"644 195 OFFCURVE",
"608 195 CURVE SMOOTH",
"573 195 OFFCURVE",
"555 177 OFFCURVE",
"555 141 CURVE SMOOTH",
"555 104 OFFCURVE",
"573 86 OFFCURVE",
"608 86 CURVE SMOOTH"
);
},
{
closed = 1;
nodes = (
"225 715 OFFCURVE",
"242 733 OFFCURVE",
"242 770 CURVE SMOOTH",
"242 805 OFFCURVE",
"224 823 OFFCURVE",
"188 823 CURVE SMOOTH",
"151 823 OFFCURVE",
"133 805 OFFCURVE",
"133 770 CURVE SMOOTH",
"133 733 OFFCURVE",
"152 715 OFFCURVE",
"190 715 CURVE SMOOTH"
);
},
{
closed = 1;
nodes = (
"819 123 OFFCURVE",
"836 140 OFFCURVE",
"836 174 CURVE SMOOTH",
"836 211 OFFCURVE",
"819 229 OFFCURVE",
"784 229 CURVE SMOOTH",
"746 229 OFFCURVE",
"727 211 OFFCURVE",
"727 174 CURVE SMOOTH",
"727 140 OFFCURVE",
"746 123 OFFCURVE",
"784 123 CURVE SMOOTH"
);
},
{
closed = 1;
nodes = (
"966 219 OFFCURVE",
"983 237 OFFCURVE",
"983 272 CURVE SMOOTH",
"983 309 OFFCURVE",
"966 328 OFFCURVE",
"932 328 CURVE SMOOTH",
"895 328 OFFCURVE",
"877 309 OFFCURVE",
"877 272 CURVE SMOOTH",
"877 237 OFFCURVE",
"895 219 OFFCURVE",
"932 219 CURVE SMOOTH"
);
},
{
closed = 1;
nodes = (
"471 963 OFFCURVE",
"489 981 OFFCURVE",
"489 1016 CURVE SMOOTH",
"489 1053 OFFCURVE",
"471 1071 OFFCURVE",
"434 1071 CURVE SMOOTH",
"399 1071 OFFCURVE",
"381 1053 OFFCURVE",
"381 1016 CURVE SMOOTH",
"381 981 OFFCURVE",
"399 963 OFFCURVE",
"434 963 CURVE SMOOTH"
);
},
{
closed = 1;
nodes = (
"1065 369 OFFCURVE",
"1083 387 OFFCURVE",
"1083 422 CURVE SMOOTH",
"1083 459 OFFCURVE",
"1065 477 OFFCURVE",
"1028 477 CURVE SMOOTH",
"993 477 OFFCURVE",
"975 459 OFFCURVE",
"975 422 CURVE SMOOTH",
"975 387 OFFCURVE",
"993 369 OFFCURVE",
"1028 369 CURVE SMOOTH"
);
},
{
closed = 1;
nodes = (
"644 997 OFFCURVE",
"662 1016 OFFCURVE",
"662 1053 CURVE SMOOTH",
"662 1088 OFFCURVE",
"644 1106 OFFCURVE",
"608 1106 CURVE SMOOTH",
"573 1106 OFFCURVE",
"555 1088 OFFCURVE",
"555 1053 CURVE SMOOTH",
"555 1016 OFFCURVE",
"573 997 OFFCURVE",
"608 997 CURVE SMOOTH"
);
},
{
closed = 1;
nodes = (
"1101 543 OFFCURVE",
"1118 561 OFFCURVE",
"1118 596 CURVE SMOOTH",
"1118 631 OFFCURVE",
"1101 649 OFFCURVE",
"1067 649 CURVE SMOOTH",
"1030 649 OFFCURVE",
"1012 631 OFFCURVE",
"1012 596 CURVE SMOOTH",
"1012 561 OFFCURVE",
"1030 543 OFFCURVE",
"1067 543 CURVE SMOOTH"
);
},
{
closed = 1;
nodes = (
"1065 715 OFFCURVE",
"1083 733 OFFCURVE",
"1083 770 CURVE SMOOTH",
"1083 805 OFFCURVE",
"1065 823 OFFCURVE",
"1030 823 CURVE SMOOTH",
"993 823 OFFCURVE",
"975 805 OFFCURVE",
"975 770 CURVE SMOOTH",
"975 733 OFFCURVE",
"993 715 OFFCURVE",
"1028 715 CURVE SMOOTH"
);
},
{
closed = 1;
nodes = (
"819 963 OFFCURVE",
"836 981 OFFCURVE",
"836 1016 CURVE SMOOTH",
"836 1053 OFFCURVE",
"819 1071 OFFCURVE",
"784 1071 CURVE SMOOTH",
"746 1071 OFFCURVE",
"727 1053 OFFCURVE",
"727 1016 CURVE SMOOTH",
"727 981 OFFCURVE",
"746 963 OFFCURVE",
"784 963 CURVE SMOOTH"
);
},
{
closed = 1;
nodes = (
"966 864 OFFCURVE",
"983 882 OFFCURVE",
"983 918 CURVE SMOOTH",
"983 955 OFFCURVE",
"966 973 OFFCURVE",
"932 973 CURVE SMOOTH",
"895 973 OFFCURVE",
"877 955 OFFCURVE",
"877 918 CURVE SMOOTH",
"877 882 OFFCURVE",
"895 864 OFFCURVE",
"932 864 CURVE SMOOTH"
);
}
);
width = 1217;
}
);
note = uni25CC;
unicode = 25CC;
},
